# xmcd
#
# Track frame offsets:
#	150
#	10676
#	23004
#	37031
#	54742
#	68222
#	81995
#	92910
#	110946
#	128891
#	145221
#	159100
#	171924
#	186346
#	201070
#	217007
#	231262
#	250240
#	260201
#	269064
#	281921
#	295667
#
# Disc length: 4274 seconds
#
# Revision: 0
# Processed by: cddbd v1.5.1PL0 Copyright (c) Steve Scherf et al.
# Submitted via: dBpowerAMP V4.0
#
DISCID=5b10b016
DTITLE=bill monroe - live w james w monroe/pete rowan/richard greene/lamar greene
DYEAR=1900
DGENRE=bluegrass
TTITLE0=panhandle country
TTITLE1=sunny side of the mountain
TTITLE2=live and let live
TTITLE3=the bluegrass breakdown
TTITLE4=john henry
TTITLE5=footprints in the snow
TTITLE6=you won't be satisfied that way
TTITLE7=paddy on the turnpike
TTITLE8=the walls of time
TTITLE9=fiddle intro/wheel horse??
TTITLE10=on the sunny side of the mountain
TTITLE11=true life blues
TTITLE12=the bluegrass breakdown
TTITLE13=georgia rose
TTITLE14=you'll find a name written there
TTITLE15=live in the past
TTITLE16=bluegrass stomp
TTITLE17=footprints in the snow
TTITLE18=chicken
TTITLE19=bill cheatham
TTITLE20=rose of old kentucky
TTITLE21=cotton-eyed joe
EXTD=
EXTT0=
EXTT1=
EXTT2=
EXTT3=
EXTT4=
EXTT5=
EXTT6=
EXTT7=
EXTT8=
EXTT9=
EXTT10=
EXTT11=
EXTT12=
EXTT13=
EXTT14=
EXTT15=
EXTT16=
EXTT17=
EXTT18=
EXTT19=
EXTT20=
EXTT21=
PLAYORDER=
